<?xml version="1.0" encoding="utf-8"?>
<!-- Generator: Adobe Illustrator 26.5.2, SVG Export Plug-In . SVG Version: 6.00 Build 0)  -->
<svg version="1.1" id="レイヤー_1" xmlns="http://www.w3.org/2000/svg" xmlns:xlink="http://www.w3.org/1999/xlink" x="0px"
	 y="0px" viewBox="0 0 141.7 141.7" style="enable-background:new 0 0 141.7 141.7;" xml:space="preserve">
<style type="text/css">
	.st0{fill:none;stroke:#231815;stroke-width:3;stroke-linecap:round;stroke-linejoin:round;stroke-miterlimit:10;}
	.st1{fill:#202020;}
</style>
<polyline class="st0" points="70.9,100.8 70.9,14.8 96.8,40.7 "/>
<g>
	<path class="st1" d="M20.4,118.2v8.8h-2.7v-8.8h-3.1v-2.3h8.9v2.3H20.4z"/>
	<path class="st1" d="M36.7,121.4c0,0.9-0.2,1.7-0.5,2.4c-0.3,0.7-0.7,1.3-1.3,1.9c-0.5,0.5-1.2,0.9-1.9,1.2
		c-0.7,0.3-1.5,0.4-2.4,0.4s-1.7-0.1-2.4-0.4s-1.4-0.7-1.9-1.2c-0.5-0.5-1-1.1-1.3-1.9c-0.3-0.7-0.5-1.5-0.5-2.4
		c0-0.9,0.2-1.7,0.5-2.4c0.3-0.7,0.7-1.3,1.3-1.8c0.5-0.5,1.2-0.9,1.9-1.2c0.7-0.3,1.5-0.4,2.4-0.4s1.7,0.1,2.4,0.4
		c0.7,0.3,1.4,0.7,1.9,1.2c0.5,0.5,1,1.1,1.3,1.8C36.5,119.7,36.7,120.5,36.7,121.4z M33.8,121.4c0-0.5-0.1-0.9-0.2-1.3
		s-0.4-0.8-0.7-1.1s-0.6-0.5-1-0.7c-0.4-0.2-0.8-0.3-1.3-0.3s-0.9,0.1-1.3,0.3c-0.4,0.2-0.7,0.4-1,0.7s-0.5,0.7-0.7,1.1
		c-0.2,0.4-0.2,0.9-0.2,1.3c0,0.5,0.1,1,0.2,1.4s0.4,0.8,0.7,1.1c0.3,0.3,0.6,0.5,1,0.7c0.4,0.2,0.8,0.3,1.3,0.3s0.9-0.1,1.3-0.3
		c0.4-0.2,0.7-0.4,1-0.7c0.3-0.3,0.5-0.7,0.7-1.1S33.8,121.9,33.8,121.4z"/>
	<path class="st1" d="M47.9,119.3c0,0.6-0.1,1.2-0.4,1.6s-0.6,0.8-1,1.1c-0.4,0.3-0.9,0.5-1.4,0.6c-0.5,0.1-1.1,0.2-1.7,0.2h-1.3
		v4.2h-2.7v-11.1h4.1c0.6,0,1.2,0.1,1.7,0.2s1,0.3,1.4,0.6c0.4,0.3,0.7,0.6,0.9,1.1S47.9,118.7,47.9,119.3z M45.3,119.3
		c0-0.3-0.1-0.5-0.2-0.6c-0.1-0.2-0.2-0.3-0.4-0.4c-0.2-0.1-0.4-0.2-0.6-0.2c-0.2,0-0.5,0-0.7,0h-1.2v2.6h1.1c0.3,0,0.5,0,0.7-0.1
		s0.4-0.1,0.6-0.2c0.2-0.1,0.3-0.2,0.4-0.4C45.2,119.8,45.3,119.6,45.3,119.3z"/>
	<path class="st1" d="M66.6,121.4c0,0.9-0.2,1.7-0.5,2.4c-0.3,0.7-0.7,1.3-1.3,1.9s-1.2,0.9-1.9,1.2c-0.7,0.3-1.5,0.4-2.4,0.4
		s-1.7-0.1-2.4-0.4c-0.7-0.3-1.4-0.7-1.9-1.2s-1-1.1-1.3-1.9c-0.3-0.7-0.5-1.5-0.5-2.4c0-0.9,0.2-1.7,0.5-2.4
		c0.3-0.7,0.7-1.3,1.3-1.8s1.2-0.9,1.9-1.2c0.7-0.3,1.5-0.4,2.4-0.4s1.7,0.1,2.4,0.4c0.7,0.3,1.4,0.7,1.9,1.2s1,1.1,1.3,1.8
		S66.6,120.5,66.6,121.4z M63.7,121.4c0-0.5-0.1-0.9-0.2-1.3c-0.2-0.4-0.4-0.8-0.7-1.1c-0.3-0.3-0.6-0.5-1-0.7
		c-0.4-0.2-0.8-0.3-1.3-0.3c-0.5,0-0.9,0.1-1.3,0.3c-0.4,0.2-0.7,0.4-1,0.7s-0.5,0.7-0.7,1.1s-0.2,0.9-0.2,1.3c0,0.5,0.1,1,0.2,1.4
		c0.2,0.4,0.4,0.8,0.7,1.1c0.3,0.3,0.6,0.5,1,0.7c0.4,0.2,0.8,0.3,1.3,0.3c0.5,0,0.9-0.1,1.3-0.3c0.4-0.2,0.7-0.4,1-0.7
		c0.3-0.3,0.5-0.7,0.7-1.1C63.7,122.3,63.7,121.9,63.7,121.4z"/>
	<path class="st1" d="M71.8,118.2v2.3h4.3v2.2h-4.3v4.3h-2.6v-11.1h7.3v2.3H71.8z"/>
	<path class="st1" d="M92.1,119.3c0,0.6-0.1,1.2-0.4,1.6s-0.6,0.8-1,1.1c-0.4,0.3-0.9,0.5-1.4,0.6c-0.5,0.1-1.1,0.2-1.7,0.2h-1.3
		v4.2h-2.7v-11.1h4.1c0.6,0,1.2,0.1,1.7,0.2s1,0.3,1.4,0.6c0.4,0.3,0.7,0.6,0.9,1.1S92.1,118.7,92.1,119.3z M89.4,119.3
		c0-0.3-0.1-0.5-0.2-0.6s-0.2-0.3-0.4-0.4c-0.2-0.1-0.4-0.2-0.6-0.2s-0.5,0-0.7,0h-1.2v2.6h1.1c0.3,0,0.5,0,0.7-0.1s0.4-0.1,0.6-0.2
		s0.3-0.2,0.4-0.4C89.4,119.8,89.4,119.6,89.4,119.3z"/>
	<path class="st1" d="M101.1,127l-0.9-2.2h-4.3l-0.8,2.2h-2.9l4.7-11.1h2.6l4.6,11.1H101.1z M98.1,118.8l-1.4,3.8h2.8L98.1,118.8z"
		/>
	<path class="st1" d="M113.4,127c-0.7,0.2-1.5,0.3-2.4,0.3c-0.9,0-1.7-0.1-2.5-0.4c-0.7-0.3-1.4-0.7-1.9-1.2s-1-1.1-1.3-1.8
		c-0.3-0.7-0.5-1.5-0.5-2.4c0-0.9,0.2-1.7,0.5-2.4c0.3-0.7,0.7-1.3,1.3-1.8c0.5-0.5,1.2-0.9,1.9-1.2c0.7-0.3,1.5-0.4,2.4-0.4
		c0.9,0,1.7,0.1,2.4,0.4s1.4,0.6,1.8,1.1l-1.7,1.9c-0.3-0.3-0.6-0.6-1-0.7c-0.4-0.2-0.9-0.3-1.5-0.3c-0.5,0-0.9,0.1-1.3,0.3
		c-0.4,0.2-0.7,0.4-1,0.7c-0.3,0.3-0.5,0.7-0.7,1.1s-0.2,0.9-0.2,1.4c0,0.5,0.1,1,0.2,1.4c0.1,0.4,0.4,0.8,0.7,1.1
		c0.3,0.3,0.6,0.5,1.1,0.7c0.4,0.2,0.9,0.3,1.5,0.3c0.3,0,0.6,0,0.9-0.1c0.3,0,0.5-0.1,0.8-0.2v-2h-2.1v-2.2h4.6v5.9
		C114.8,126.6,114.2,126.8,113.4,127z"/>
	<path class="st1" d="M118.3,127v-11.1h7.5v2.3h-4.9v2.1h4.6v2.1h-4.6v2.3h5.2v2.3H118.3z"/>
</g>
</svg>
